<svg width="100%" viewBox="0 0 680 1720" xmlns="http://www.w3.org/2000/svg">
<rect width="680" height="1720" fill="white"/>
<defs>
  <marker id="arrow" viewBox="0 0 10 10" refX="8" refY="5" markerWidth="6" markerHeight="6" orient="auto-start-reverse">
    <path d="M2 1L8 5L2 9" fill="none" stroke="#888" stroke-width="1.5" stroke-linecap="round" stroke-linejoin="round"/>
  </marker>
  <marker id="arrowDash" viewBox="0 0 10 10" refX="8" refY="5" markerWidth="6" markerHeight="6" orient="auto-start-reverse">
    <path d="M2 1L8 5L2 9" fill="none" stroke="#aaa" stroke-width="1.5" stroke-linecap="round" stroke-linejoin="round"/>
  </marker>
</defs>

<!-- Sistema: caixa retangular -->
<rect x="170" y="40" width="360" height="1620" rx="8" fill="none" stroke="#bbb" stroke-width="1.2"/>
<text x="350" y="62" text-anchor="middle" font-family="Arial, sans-serif" font-size="13" font-weight="600" fill="#444">BalanceSys</text>

<!-- ===== ATORES ===== -->

<!-- Usuário (esquerda, cy=860) -->
<circle cx="75" cy="820" r="14" fill="white" stroke="#222" stroke-width="1.5"/>
<line x1="75" y1="834" x2="75" y2="880" stroke="#222" stroke-width="1.5"/>
<line x1="50" y1="850" x2="100" y2="850" stroke="#222" stroke-width="1.5"/>
<line x1="75" y1="880" x2="52" y2="908" stroke="#222" stroke-width="1.5"/>
<line x1="75" y1="880" x2="98" y2="908" stroke="#222" stroke-width="1.5"/>
<text x="75" y="924" text-anchor="middle" font-family="Arial, sans-serif" font-size="11" fill="#222">Usuário</text>

<!-- Sistema interno (esquerda, cy=1390) -->
<circle cx="75" cy="1360" r="14" fill="white" stroke="#222" stroke-width="1.5"/>
<line x1="75" y1="1374" x2="75" y2="1420" stroke="#222" stroke-width="1.5"/>
<line x1="50" y1="1390" x2="100" y2="1390" stroke="#222" stroke-width="1.5"/>
<line x1="75" y1="1420" x2="52" y2="1448" stroke="#222" stroke-width="1.5"/>
<line x1="75" y1="1420" x2="98" y2="1448" stroke="#222" stroke-width="1.5"/>
<text x="75" y="1464" text-anchor="middle" font-family="Arial, sans-serif" font-size="11" fill="#222">Sistema</text>

<!-- OAuth (direita, cy=110) -->
<circle cx="600" cy="110" r="14" fill="white" stroke="#222" stroke-width="1.5"/>
<line x1="600" y1="124" x2="600" y2="170" stroke="#222" stroke-width="1.5"/>
<line x1="575" y1="140" x2="625" y2="140" stroke="#222" stroke-width="1.5"/>
<line x1="600" y1="170" x2="577" y2="198" stroke="#222" stroke-width="1.5"/>
<line x1="600" y1="170" x2="623" y2="198" stroke="#222" stroke-width="1.5"/>
<text x="600" y="214" text-anchor="middle" font-family="Arial, sans-serif" font-size="11" fill="#222">OAuth</text>
<text x="600" y="227" text-anchor="middle" font-family="Arial, sans-serif" font-size="11" fill="#222">(Google)</text>

<!-- SMTP (direita, cy=490) -->
<circle cx="600" cy="490" r="14" fill="white" stroke="#222" stroke-width="1.5"/>
<line x1="600" y1="504" x2="600" y2="550" stroke="#222" stroke-width="1.5"/>
<line x1="575" y1="520" x2="625" y2="520" stroke="#222" stroke-width="1.5"/>
<line x1="600" y1="550" x2="577" y2="578" stroke="#222" stroke-width="1.5"/>
<line x1="600" y1="550" x2="623" y2="578" stroke="#222" stroke-width="1.5"/>
<text x="600" y="594" text-anchor="middle" font-family="Arial, sans-serif" font-size="11" fill="#222">E-mail</text>
<text x="600" y="607" text-anchor="middle" font-family="Arial, sans-serif" font-size="11" fill="#222">(SMTP)</text>

<!-- dompdf (direita, cy=700) -->
<circle cx="600" cy="700" r="14" fill="white" stroke="#222" stroke-width="1.5"/>
<line x1="600" y1="714" x2="600" y2="760" stroke="#222" stroke-width="1.5"/>
<line x1="575" y1="730" x2="625" y2="730" stroke="#222" stroke-width="1.5"/>
<line x1="600" y1="760" x2="577" y2="788" stroke="#222" stroke-width="1.5"/>
<line x1="600" y1="760" x2="623" y2="788" stroke="#222" stroke-width="1.5"/>
<text x="600" y="804" text-anchor="middle" font-family="Arial, sans-serif" font-size="11" fill="#222">Exportação</text>
<text x="600" y="817" text-anchor="middle" font-family="Arial, sans-serif" font-size="11" fill="#222">(dompdf)</text>

<!-- Bot Mensageria (direita, cy=900) -->
<circle cx="600" cy="890" r="14" fill="white" stroke="#222" stroke-width="1.5"/>
<line x1="600" y1="904" x2="600" y2="950" stroke="#222" stroke-width="1.5"/>
<line x1="575" y1="920" x2="625" y2="920" stroke="#222" stroke-width="1.5"/>
<line x1="600" y1="950" x2="577" y2="978" stroke="#222" stroke-width="1.5"/>
<line x1="600" y1="950" x2="623" y2="978" stroke="#222" stroke-width="1.5"/>
<text x="600" y="994" text-anchor="middle" font-family="Arial, sans-serif" font-size="11" fill="#222">Bot Mensageria</text>
<text x="600" y="1007" text-anchor="middle" font-family="Arial, sans-serif" font-size="11" fill="#222">(WhatsApp/Telegram)</text>

<!-- ===== CASOS DE USO ===== -->

<!-- UC01 -->
<ellipse cx="350" cy="100" rx="120" ry="22" fill="#f5f5f5" stroke="#888" stroke-width="0.8"/>
<text x="350" y="96" text-anchor="middle" font-family="Arial, sans-serif" font-size="9" fill="#999">UC01</text>
<text x="350" y="106" text-anchor="middle" font-family="Arial, sans-serif" font-size="11" fill="#222">Cadastrar Usuário</text>

<!-- UC02 -->
<ellipse cx="350" cy="180" rx="105" ry="22" fill="#f5f5f5" stroke="#888" stroke-width="0.8"/>
<text x="350" y="176" text-anchor="middle" font-family="Arial, sans-serif" font-size="9" fill="#999">UC02</text>
<text x="350" y="186" text-anchor="middle" font-family="Arial, sans-serif" font-size="11" fill="#222">Fazer Login</text>

<!-- UC03 -->
<ellipse cx="350" cy="265" rx="120" ry="22" fill="#f5f5f5" stroke="#888" stroke-width="0.8"/>
<text x="350" y="261" text-anchor="middle" font-family="Arial, sans-serif" font-size="9" fill="#999">UC03</text>
<text x="350" y="271" text-anchor="middle" font-family="Arial, sans-serif" font-size="11" fill="#222">Registrar Transação</text>

<!-- UC04 -->
<ellipse cx="350" cy="350" rx="120" ry="22" fill="#f5f5f5" stroke="#888" stroke-width="0.8"/>
<text x="350" y="346" text-anchor="middle" font-family="Arial, sans-serif" font-size="9" fill="#999">UC04</text>
<text x="350" y="356" text-anchor="middle" font-family="Arial, sans-serif" font-size="11" fill="#222">Excluir Transação</text>

<!-- UC05 -->
<ellipse cx="350" cy="435" rx="115" ry="22" fill="#f5f5f5" stroke="#888" stroke-width="0.8"/>
<text x="350" y="431" text-anchor="middle" font-family="Arial, sans-serif" font-size="9" fill="#999">UC05</text>
<text x="350" y="441" text-anchor="middle" font-family="Arial, sans-serif" font-size="11" fill="#222">Editar Transação</text>

<!-- UC06 -->
<ellipse cx="350" cy="520" rx="148" ry="22" fill="#f5f5f5" stroke="#888" stroke-width="0.8"/>
<text x="350" y="516" text-anchor="middle" font-family="Arial, sans-serif" font-size="9" fill="#999">UC06</text>
<text x="350" y="526" text-anchor="middle" font-family="Arial, sans-serif" font-size="11" fill="#222">Agendar Transação Recorrente</text>

<!-- UC07 -->
<ellipse cx="350" cy="605" rx="148" ry="22" fill="#f5f5f5" stroke="#888" stroke-width="0.8"/>
<text x="350" y="601" text-anchor="middle" font-family="Arial, sans-serif" font-size="9" fill="#999">UC07</text>
<text x="350" y="611" text-anchor="middle" font-family="Arial, sans-serif" font-size="11" fill="#222">Filtrar Histórico de Transações</text>

<!-- UC08 -->
<ellipse cx="350" cy="690" rx="130" ry="22" fill="#f5f5f5" stroke="#888" stroke-width="0.8"/>
<text x="350" y="686" text-anchor="middle" font-family="Arial, sans-serif" font-size="9" fill="#999">UC08</text>
<text x="350" y="696" text-anchor="middle" font-family="Arial, sans-serif" font-size="11" fill="#222">Visualizar Dashboard</text>

<!-- UC09 -->
<ellipse cx="350" cy="775" rx="155" ry="22" fill="#f5f5f5" stroke="#888" stroke-width="0.8"/>
<text x="350" y="771" text-anchor="middle" font-family="Arial, sans-serif" font-size="9" fill="#999">UC09</text>
<text x="350" y="781" text-anchor="middle" font-family="Arial, sans-serif" font-size="11" fill="#222">Visualizar Relatórios com Gráficos</text>

<!-- UC10 -->
<ellipse cx="350" cy="860" rx="110" ry="22" fill="#f5f5f5" stroke="#888" stroke-width="0.8"/>
<text x="350" y="856" text-anchor="middle" font-family="Arial, sans-serif" font-size="9" fill="#999">UC10</text>
<text x="350" y="866" text-anchor="middle" font-family="Arial, sans-serif" font-size="11" fill="#222">Exportar Dados</text>

<!-- UC11 -->
<ellipse cx="350" cy="945" rx="145" ry="22" fill="#f5f5f5" stroke="#888" stroke-width="0.8"/>
<text x="350" y="941" text-anchor="middle" font-family="Arial, sans-serif" font-size="9" fill="#999">UC11</text>
<text x="350" y="951" text-anchor="middle" font-family="Arial, sans-serif" font-size="11" fill="#222">Gerenciar Metas Financeiras</text>

<!-- UC12 -->
<ellipse cx="350" cy="1030" rx="158" ry="22" fill="#f5f5f5" stroke="#888" stroke-width="0.8"/>
<text x="350" y="1026" text-anchor="middle" font-family="Arial, sans-serif" font-size="9" fill="#999">UC12</text>
<text x="350" y="1036" text-anchor="middle" font-family="Arial, sans-serif" font-size="11" fill="#222">Classificar Transação Automaticamente</text>

<!-- UC13 -->
<ellipse cx="350" cy="1115" rx="152" ry="22" fill="#f5f5f5" stroke="#888" stroke-width="0.8"/>
<text x="350" y="1111" text-anchor="middle" font-family="Arial, sans-serif" font-size="9" fill="#999">UC13</text>
<text x="350" y="1121" text-anchor="middle" font-family="Arial, sans-serif" font-size="11" fill="#222">Visualizar Projeção de Saldo Futuro</text>

<!-- UC14 -->
<ellipse cx="350" cy="1200" rx="145" ry="22" fill="#f5f5f5" stroke="#888" stroke-width="0.8"/>
<text x="350" y="1196" text-anchor="middle" font-family="Arial, sans-serif" font-size="9" fill="#999">UC14</text>
<text x="350" y="1206" text-anchor="middle" font-family="Arial, sans-serif" font-size="11" fill="#222">Interagir via App de Mensageria</text>

<!-- UC15 -->
<ellipse cx="350" cy="1285" rx="135" ry="22" fill="#f5f5f5" stroke="#888" stroke-width="0.8"/>
<text x="350" y="1281" text-anchor="middle" font-family="Arial, sans-serif" font-size="9" fill="#999">UC15</text>
<text x="350" y="1291" text-anchor="middle" font-family="Arial, sans-serif" font-size="11" fill="#222">Receber Notificações Push</text>

<!-- UC16 -->
<ellipse cx="350" cy="1370" rx="105" ry="22" fill="#f5f5f5" stroke="#888" stroke-width="0.8"/>
<text x="350" y="1366" text-anchor="middle" font-family="Arial, sans-serif" font-size="9" fill="#999">UC16</text>
<text x="350" y="1376" text-anchor="middle" font-family="Arial, sans-serif" font-size="11" fill="#222">Fazer Logout</text>

<!-- ===== ASSOCIAÇÕES: Usuário → UCs ===== -->
<line x1="89" y1="820" x2="230" y2="100" stroke="#555" stroke-width="0.9"/>
<line x1="89" y1="824" x2="245" y2="180" stroke="#555" stroke-width="0.9"/>
<line x1="89" y1="828" x2="230" y2="265" stroke="#555" stroke-width="0.9"/>
<line x1="89" y1="832" x2="230" y2="350" stroke="#555" stroke-width="0.9"/>
<line x1="89" y1="836" x2="235" y2="435" stroke="#555" stroke-width="0.9"/>
<line x1="89" y1="840" x2="202" y2="520" stroke="#555" stroke-width="0.9"/>
<line x1="89" y1="844" x2="202" y2="605" stroke="#555" stroke-width="0.9"/>
<line x1="89" y1="848" x2="220" y2="690" stroke="#555" stroke-width="0.9"/>
<line x1="89" y1="852" x2="195" y2="775" stroke="#555" stroke-width="0.9"/>
<line x1="89" y1="856" x2="240" y2="860" stroke="#555" stroke-width="0.9"/>
<line x1="89" y1="860" x2="205" y2="945" stroke="#555" stroke-width="0.9"/>
<line x1="89" y1="868" x2="198" y2="1115" stroke="#555" stroke-width="0.9"/>
<line x1="89" y1="872" x2="205" y2="1200" stroke="#555" stroke-width="0.9"/>
<line x1="89" y1="876" x2="245" y2="1370" stroke="#555" stroke-width="0.9"/>

<!-- ===== ASSOCIAÇÕES: Atores externos → UCs ===== -->
<!-- OAuth → UC01 -->
<line x1="586" y1="110" x2="470" y2="100" stroke="#555" stroke-width="0.9"/>
<!-- OAuth → UC02 -->
<line x1="586" y1="116" x2="455" y2="180" stroke="#555" stroke-width="0.9"/>
<!-- SMTP → UC11 -->
<line x1="586" y1="500" x2="495" y2="945" stroke="#555" stroke-width="0.9"/>
<!-- dompdf → UC10 -->
<line x1="586" y1="706" x2="460" y2="860" stroke="#555" stroke-width="0.9"/>
<!-- Bot → UC14 -->
<line x1="586" y1="896" x2="495" y2="1200" stroke="#555" stroke-width="0.9"/>

<!-- ===== ASSOCIAÇÕES: Sistema → UCs ===== -->
<!-- Sistema → UC12 -->
<line x1="89" y1="1362" x2="192" y2="1030" stroke="#555" stroke-width="0.9"/>
<!-- Sistema → UC15 -->
<line x1="89" y1="1368" x2="215" y2="1285" stroke="#555" stroke-width="0.9"/>
<!-- Sistema → UC06 -->
<line x1="89" y1="1356" x2="202" y2="520" stroke="#555" stroke-width="0.9"/>

<!-- ===== INCLUDE / EXTEND ===== -->
<!-- UC03 - include -> UC12 -->
<line x1="350" y1="287" x2="350" y2="1008" stroke="#aaa" stroke-width="0.8" stroke-dasharray="5 3" marker-end="url(#arrowDash)"/>
<rect x="282" y="630" width="70" height="16" fill="white"/>
<text x="317" y="641" text-anchor="middle" font-family="Arial, sans-serif" font-size="9" fill="#888">«include»</text>

<!-- UC11 - extend -> UC15 -->
<line x1="390" y1="954" x2="420" y2="1263" stroke="#aaa" stroke-width="0.8" stroke-dasharray="5 3" marker-end="url(#arrowDash)"/>
<rect x="392" y="1095" width="66" height="16" fill="white"/>
<text x="425" y="1106" text-anchor="middle" font-family="Arial, sans-serif" font-size="9" fill="#888">«extend»</text>

<!-- ===== LEGENDA ===== -->
<rect x="185" y="1450" width="300" height="88" rx="6" fill="#fafafa" stroke="#ddd" stroke-width="0.8"/>
<text x="200" y="1470" font-family="Arial, sans-serif" font-size="12" font-weight="600" fill="#444">Legenda</text>
<line x1="200" y1="1488" x2="250" y2="1488" stroke="#555" stroke-width="0.9"/>
<text x="258" y="1492" font-family="Arial, sans-serif" font-size="10" fill="#444">Associação direta</text>
<line x1="200" y1="1510" x2="250" y2="1510" stroke="#aaa" stroke-width="0.8" stroke-dasharray="5 3"/>
<path d="M248 1506 L254 1510 L248 1514" fill="none" stroke="#aaa" stroke-width="1"/>
<text x="258" y="1514" font-family="Arial, sans-serif" font-size="10" fill="#444">«include» / «extend»</text>
<circle cx="210" cy="1532" r="8" fill="white" stroke="#222" stroke-width="1.2"/>
<line x1="210" y1="1540" x2="210" y2="1556" stroke="#222" stroke-width="1.2"/>
<line x1="200" y1="1546" x2="220" y2="1546" stroke="#222" stroke-width="1.2"/>
<text x="228" y="1537" font-family="Arial, sans-serif" font-size="10" fill="#444">Ator (interno ou externo)</text>

</svg>
